HIERARCHY
ROOT pelvis
{
	OFFSET 0.003123 -0.351407 0.012037
	CHANNELS 6 Xposition Yposition Zposition Zrotation Yrotation Xrotation 
	JOINT left_hip
	{
		OFFSET 0.058189 -0.092763 -0.026001
		CHANNELS 3 Zrotation Yrotation Xrotation
		JOINT left_knee
		{
			OFFSET 0.054695 -0.378753 -0.009396
			CHANNELS 3 Zrotation Yrotation Xrotation
			JOINT left_ankle
			{
				OFFSET -0.043453 -0.403059 -0.031876
				CHANNELS 3 Zrotation Yrotation Xrotation
				JOINT left_foot
				{
					OFFSET 0.047257 -0.057997 0.118216
					CHANNELS 3 Zrotation Yrotation Xrotation
					End Site
					{
						OFFSET 0.000000 0.000000 0.000000
					}
				}
			}
		}
	}
	JOINT right_hip
	{
		OFFSET -0.063267 -0.103908 -0.021250
		CHANNELS 3 Zrotation Yrotation Xrotation
		JOINT right_knee
		{
			OFFSET -0.044210 -0.362380 -0.016824
			CHANNELS 3 Zrotation Yrotation Xrotation
			JOINT right_ankle
			{
				OFFSET 0.015417 -0.410728 -0.020192
				CHANNELS 3 Zrotation Yrotation Xrotation
				JOINT right_foot
				{
					OFFSET -0.038812 -0.058328 0.119049
					CHANNELS 3 Zrotation Yrotation Xrotation
					End Site
					{
						OFFSET 0.000000 0.000000 0.000000
					}
				}
			}
		}
	}
	JOINT spine_1
	{
		OFFSET -0.002763 0.109891 -0.027618
		CHANNELS 3 Zrotation Yrotation Xrotation
		JOINT spine_2
		{
			OFFSET 0.009448 0.131853 -0.005940
			CHANNELS 3 Zrotation Yrotation Xrotation
			JOINT spine_3
			{
				OFFSET -0.011330 0.052235 0.028447
				CHANNELS 3 Zrotation Yrotation Xrotation
				JOINT neck
				{
					OFFSET -0.012164 0.165167 -0.031615
					CHANNELS 3 Zrotation Yrotation Xrotation
					JOINT head
					{
						OFFSET 0.024783 0.160452 0.020737
						CHANNELS 3 Zrotation Yrotation Xrotation
						End Site
						{
							OFFSET 0.000000 0.000000 0.000000
						}
					}
				}
				JOINT left_collar
				{
					OFFSET 0.046364 0.084944 -0.007220
					CHANNELS 3 Zrotation Yrotation Xrotation
					JOINT left_shoulder
					{
						OFFSET 0.119239 0.057728 -0.015461
						CHANNELS 3 Zrotation Yrotation Xrotation
						JOINT left_elbow
						{
							OFFSET 0.254123 -0.072151 -0.042459
							CHANNELS 3 Zrotation Yrotation Xrotation
							JOINT left_wrist
							{
								OFFSET 0.251987 0.023221 -0.002472
								CHANNELS 3 Zrotation Yrotation Xrotation
								JOINT left_index_1
								{
									OFFSET 0.101902 -0.008688 0.019351
									CHANNELS 3 Zrotation Yrotation Xrotation
									JOINT left_index_2
									{
										OFFSET 0.030149 -0.011154 0.001151
										CHANNELS 3 Zrotation Yrotation Xrotation
										JOINT left_index_3
										{
											OFFSET 0.006504 -0.021577 -0.002433
											CHANNELS 3 Zrotation Yrotation Xrotation
											End Site
											{
												OFFSET 0.000000 0.000000 0.000000
											}
										}
									}
								}
								JOINT left_middle_1
								{
									OFFSET 0.109398 -0.006328 -0.003981
									CHANNELS 3 Zrotation Yrotation Xrotation
									JOINT left_middle_2
									{
										OFFSET 0.026472 -0.015218 -0.004641
										CHANNELS 3 Zrotation Yrotation Xrotation
										JOINT left_middle_3
										{
											OFFSET 0.005022 -0.023347 -0.001911
											CHANNELS 3 Zrotation Yrotation Xrotation
											End Site
											{
												OFFSET 0.000000 0.000000 0.000000
											}
										}
									}
								}
								JOINT left_pinky_1
								{
									OFFSET 0.084047 -0.014539 -0.043750
									CHANNELS 3 Zrotation Yrotation Xrotation
									JOINT left_pinky_2
									{
										OFFSET 0.012124 -0.014448 -0.005375
										CHANNELS 3 Zrotation Yrotation Xrotation
										JOINT left_pinky_3
										{
											OFFSET 0.003798 -0.018853 0.000167
											CHANNELS 3 Zrotation Yrotation Xrotation
											End Site
											{
												OFFSET 0.000000 0.000000 0.000000
											}
										}
									}
								}
								JOINT left_ring_1
								{
									OFFSET 0.097444 -0.009268 -0.027345
									CHANNELS 3 Zrotation Yrotation Xrotation
									JOINT left_ring_2
									{
										OFFSET 0.023561 -0.016057 -0.001895
										CHANNELS 3 Zrotation Yrotation Xrotation
										JOINT left_ring_3
										{
											OFFSET 0.004257 -0.023548 0.000814
											CHANNELS 3 Zrotation Yrotation Xrotation
											End Site
											{
												OFFSET 0.000000 0.000000 0.000000
											}
										}
									}
								}
								JOINT left_thumb_1
								{
									OFFSET 0.040636 -0.017977 0.025611
									CHANNELS 3 Zrotation Yrotation Xrotation
									JOINT left_thumb_2
									{
										OFFSET 0.021637 -0.017639 0.011623
										CHANNELS 3 Zrotation Yrotation Xrotation
										JOINT left_thumb_3
										{
											OFFSET 0.024002 -0.008356 0.006548
											CHANNELS 3 Zrotation Yrotation Xrotation
											End Site
											{
												OFFSET 0.000000 0.000000 0.000000
											}
										}
									}
								}
							}
						}
					}
				}
				JOINT right_collar
				{
					OFFSET -0.047695 0.084339 -0.013400
					CHANNELS 3 Zrotation Yrotation Xrotation
					JOINT right_shoulder
					{
						OFFSET -0.102578 0.053524 -0.012669
						CHANNELS 3 Zrotation Yrotation Xrotation
						JOINT right_elbow
						{
							OFFSET -0.271150 -0.036492 -0.026467
							CHANNELS 3 Zrotation Yrotation Xrotation
							JOINT right_wrist
							{
								OFFSET -0.249267 -0.004533 -0.015325
								CHANNELS 3 Zrotation Yrotation Xrotation
								JOINT right_index_1
								{
									OFFSET -0.099881 -0.011783 0.019600
									CHANNELS 3 Zrotation Yrotation Xrotation
									JOINT right_index_2
									{
										OFFSET -0.030148 -0.011154 0.001151
										CHANNELS 3 Zrotation Yrotation Xrotation
										JOINT right_index_3
										{
											OFFSET -0.006505 -0.021577 -0.002432
											CHANNELS 3 Zrotation Yrotation Xrotation
											End Site
											{
												OFFSET 0.000000 0.000000 0.000000
											}
										}
									}
								}
								JOINT right_middle_1
								{
									OFFSET -0.107376 -0.009422 -0.003734
									CHANNELS 3 Zrotation Yrotation Xrotation
									JOINT right_middle_2
									{
										OFFSET -0.026472 -0.015218 -0.004641
										CHANNELS 3 Zrotation Yrotation Xrotation
										JOINT right_middle_3
										{
											OFFSET -0.005022 -0.023347 -0.001911
											CHANNELS 3 Zrotation Yrotation Xrotation
											End Site
											{
												OFFSET 0.000000 0.000000 0.000000
											}
										}
									}
								}
								JOINT right_pinky_1
								{
									OFFSET -0.082027 -0.017634 -0.043503
									CHANNELS 3 Zrotation Yrotation Xrotation
									JOINT right_pinky_2
									{
										OFFSET -0.012123 -0.014448 -0.005374
										CHANNELS 3 Zrotation Yrotation Xrotation
										JOINT right_pinky_3
										{
											OFFSET -0.003798 -0.018852 0.000167
											CHANNELS 3 Zrotation Yrotation Xrotation
											End Site
											{
												OFFSET 0.000000 0.000000 0.000000
											}
										}
									}
								}
								JOINT right_ring_1
								{
									OFFSET -0.095423 -0.012362 -0.027099
									CHANNELS 3 Zrotation Yrotation Xrotation
									JOINT right_ring_2
									{
										OFFSET -0.023561 -0.016057 -0.001895
										CHANNELS 3 Zrotation Yrotation Xrotation
										JOINT right_ring_3
										{
											OFFSET -0.004257 -0.023548 0.000816
											CHANNELS 3 Zrotation Yrotation Xrotation
											End Site
											{
												OFFSET 0.000000 0.000000 0.000000
											}
										}
									}
								}
								JOINT right_thumb_1
								{
									OFFSET -0.038613 -0.021074 0.025861
									CHANNELS 3 Zrotation Yrotation Xrotation
									JOINT right_thumb_2
									{
										OFFSET -0.021636 -0.017639 0.011623
										CHANNELS 3 Zrotation Yrotation Xrotation
										JOINT right_thumb_3
										{
											OFFSET -0.024004 -0.008353 0.006547
											CHANNELS 3 Zrotation Yrotation Xrotation
											End Site
											{
												OFFSET 0.000000 0.000000 0.000000
											}
										}
									}
								}
							}
						}
					}
				}
			}
		}
	}
}
MOTION
Frames: 4
Frame Time: 0.050000
0.233700 0.937878 1.620087 4.728125 -45.380383 -9.132689 -40.294733 4.160840 -7.393246 43.962553 1.761085 0.395869 -69.449774 22.327090 74.364003 0.000000 0.000000 0.000000 16.516669 -2.279103 23.443598 -17.697462 0.930727 -27.422167 -23.939430 -2.486320 118.462990 0.000000 0.000000 0.000000 3.222306 -1.307280 21.726475 3.489007 -1.267584 -57.161102 -13.117913 -41.474262 44.117321 26.901884 6.243676 -4.485896 0.000000 0.000000 0.000000 84.031490 -35.987615 64.413529 105.255789 -29.405954 32.028532 -17.314714 66.001166 -19.354644 28.598018 7.430964 17.126453 15.363221 37.297706 17.695415 85.221190 -9.776860 6.842654 0.000000 0.000000 0.000000 32.925216 -13.056301 -6.839955 111.167207 -30.143882 34.738218 0.000000 0.000000 0.000000 77.589522 -18.278280 -81.475333 40.524459 -0.803205 7.275597 0.000000 0.000000 0.000000 49.846138 -28.137073 -40.511287 84.767644 12.327556 -13.803106 0.000000 0.000000 0.000000 85.503436 38.857598 68.759919 -23.131939 -27.705655 1.629892 0.000000 0.000000 0.000000 -43.064603 -46.073099 -46.231453 18.714479 -71.356898 -31.394036 73.877642 -39.345428 -40.646047 -9.646508 -8.058386 58.446306 11.146361 -38.882071 5.908999 -52.929092 4.147842 21.657636 0.000000 0.000000 0.000000 -16.152519 -0.200156 0.955193 -51.095762 -9.858544 63.472872 0.000000 0.000000 0.000000 -85.060522 0.508685 -56.848103 -50.580444 3.013878 31.127296 0.000000 0.000000 0.000000 -48.962245 6.157746 -21.748316 -130.318010 12.837432 59.242744 0.000000 0.000000 0.000000 -50.136501 -52.730087 58.035919 -3.604293 29.629239 -16.156656 0.000000 0.000000 0.000000 
0.237469 0.937394 1.620087 0.531056 -40.467751 -4.037925 -38.837802 3.183664 -7.021115 45.325540 3.013416 -2.327191 -66.892612 24.757356 78.072603 0.000000 0.000000 0.000000 20.893105 -3.496587 20.436579 -19.212801 0.182093 -27.672267 -23.392574 -5.687949 118.732006 0.000000 0.000000 0.000000 6.469865 -1.949397 19.044869 1.519930 -2.271372 -58.673697 -13.535120 -36.271806 44.963448 28.357672 7.050595 -7.108763 0.000000 0.000000 0.000000 92.281601 -36.214304 57.395744 103.654655 -27.378477 29.438516 -8.445979 68.331789 -13.426177 29.432754 9.709208 10.134731 16.041847 36.572267 18.306372 88.332145 -9.765798 1.823727 0.000000 0.000000 0.000000 29.958735 -15.812128 -8.653023 117.586011 -31.578521 24.431110 0.000000 0.000000 0.000000 73.364203 -22.411227 -82.372414 41.180542 -0.261238 3.720285 0.000000 0.000000 0.000000 51.068484 -30.948246 -44.173669 77.754475 11.097051 -15.856174 0.000000 0.000000 0.000000 85.885786 36.351912 66.089045 -22.839462 -27.323585 1.779880 0.000000 0.000000 0.000000 -51.620529 -51.273225 -40.216520 -4.529611 -73.698625 -10.210880 75.957363 -44.703165 -44.720914 -8.573479 -7.606893 54.859268 9.632271 -43.570163 6.820959 -59.521471 5.360472 19.003651 0.000000 0.000000 0.000000 -18.086970 -3.795050 3.186556 -54.028075 -5.945383 64.606553 0.000000 0.000000 0.000000 -86.117641 0.340946 -59.434673 -46.689262 2.658934 23.289823 0.000000 0.000000 0.000000 -51.869537 5.218985 -22.540083 -135.354566 9.373437 47.030559 0.000000 0.000000 0.000000 -55.710370 -52.121805 61.656673 0.713523 31.341472 -13.650388 0.000000 0.000000 0.000000 
0.241238 0.936749 1.614807 0.599408 -54.585647 -3.755978 -38.098974 2.836284 -12.488521 46.773787 3.219598 1.667703 -70.637164 21.749089 69.695206 0.000000 0.000000 0.000000 15.827066 -1.488307 20.849368 -12.781972 3.017185 -27.835645 -28.766660 2.017703 113.341559 0.000000 0.000000 0.000000 3.116196 -1.243191 21.035466 4.135060 -0.356095 -53.383995 -17.533974 -42.240505 47.058199 27.036013 6.834480 -1.256589 0.000000 0.000000 0.000000 69.531756 -33.537863 72.535551 109.344615 -40.552716 16.593259 15.800327 67.525517 4.206092 32.845462 6.757445 -5.989574 24.546585 31.349175 19.762121 97.780923 -8.215426 -15.253605 0.000000 0.000000 0.000000 24.049464 -22.051673 -11.841016 129.075526 -9.088016 -21.297423 0.000000 0.000000 0.000000 66.969868 -31.847700 -84.378667 36.098265 -0.498252 5.748790 0.000000 0.000000 0.000000 40.771206 -38.862796 -42.250716 66.012174 10.802724 -26.277767 0.000000 0.000000 0.000000 91.129810 28.892464 53.486866 -29.358632 -27.166353 5.377577 0.000000 0.000000 0.000000 -33.285395 -36.825380 -51.705580 26.692297 -67.857481 -40.103532 81.062072 -37.976339 -47.368795 -9.759626 -6.973170 56.648130 12.529681 -37.614059 5.462975 -56.987913 4.434195 25.371455 0.000000 0.000000 0.000000 -16.751363 0.331222 0.518745 -53.206451 -8.430386 66.444077 0.000000 0.000000 0.000000 -84.656145 0.315153 -58.956554 -50.576672 3.006291 28.503035 0.000000 0.000000 0.000000 -49.909534 6.772272 -23.847216 -129.179715 13.265508 61.713953 0.000000 0.000000 0.000000 -58.391922 -53.814850 63.973675 0.818149 34.823241 -15.960326 0.000000 0.000000 0.000000 
0.244064 0.936427 1.609528 -1.514433 -40.071959 -1.588550 -38.734326 2.883162 -7.626958 47.364100 4.797844 -4.293754 -65.074071 25.068078 78.799229 0.000000 0.000000 0.000000 22.471011 -3.534635 18.524490 -18.622973 0.287786 -28.140993 -24.477948 -5.871989 118.623375 0.000000 0.000000 0.000000 4.014578 -1.531990 21.952258 -0.751452 -3.409159 -55.695190 -10.878393 -40.126859 42.291989 26.508211 6.223948 -6.939456 0.000000 0.000000 0.000000 86.799817 -36.898048 58.507809 104.448532 -32.849379 19.750410 20.401861 70.189236 7.871710 32.889236 8.630112 -4.575093 24.128181 32.224362 20.136364 95.822846 -8.518577 -12.313726 0.000000 0.000000 0.000000 25.585338 -21.227335 -11.826918 128.929257 -9.983752 -16.774955 0.000000 0.000000 0.000000 64.544717 -30.705068 -81.778123 37.267771 -0.109336 2.532561 0.000000 0.000000 0.000000 42.517579 -37.497968 -43.253593 66.643354 9.293139 -20.391582 0.000000 0.000000 0.000000 88.721134 30.532119 56.202633 -25.792310 -27.047677 3.634637 0.000000 0.000000 0.000000 -49.077276 -49.534419 -41.209126 -8.806896 -72.328413 -8.016792 84.397222 -44.772639 -52.421107 -9.452211 -10.936374 59.575835 12.912250 -37.667838 5.050066 -56.093660 4.367292 25.565041 0.000000 0.000000 0.000000 -14.661239 -0.304952 0.963259 -58.057184 -7.984619 69.095600 0.000000 0.000000 0.000000 -83.889530 -0.044579 -58.672169 -54.153682 3.373087 26.923819 0.000000 0.000000 0.000000 -48.192589 6.234809 -22.731654 -141.274706 6.220306 47.941564 0.000000 0.000000 0.000000 -52.210402 -51.852092 58.500167 -4.201209 31.612963 -17.961130 0.000000 0.000000 0.000000 
